# Blender v2.76 (sub 0) OBJ File: 'untitled.blend'
# www.blender.org
v -21.565487 -0.457802 -21.298082
v -21.565487 0.539856 -21.296503
v -21.565487 -0.539856 21.296503
v -21.565487 0.457802 21.298082
v 21.565487 -0.457802 -21.298082
v 21.565487 0.539856 -21.296503
v 21.565487 -0.539856 21.296503
v 21.565487 0.457802 21.298082
vt 0.666667 0.666667
vt 0.666667 0.333333
vt 0.333333 0.333333
vt 0.333333 0.666667
vt 0.000000 0.333333
vt 0.333333 0.000000
vt 0.666667 0.000000
vt 1.000000 0.333333
vt 0.000246 0.031994
vt 1.002420 0.031994
vt 1.002420 0.979514
vt 0.000000 0.666667
vt 0.000000 0.000000
vt 1.000000 0.000000
vt 0.000246 0.979514
vn -1.000000 0.000000 0.000000
vn 0.000000 -0.001600 1.000000
vn 1.000000 0.000000 0.000000
vn 0.000000 0.001600 -1.000000
vn 0.000000 -1.000000 -0.001900
vn 0.000000 1.000000 0.001900
s off
f 1/1/1 3/2/1 4/3/1
f 3/4/2 7/3/2 8/5/2
f 8/5/3 7/3/3 5/6/3
f 5/3/4 1/2/4 2/7/4
f 5/7/5 7/2/5 3/8/5
f 2/9/6 4/10/6 8/11/6
f 2/4/1 1/1/1 4/3/1
f 4/12/2 3/4/2 8/5/2
f 6/13/3 8/5/3 5/6/3
f 6/6/4 5/3/4 2/7/4
f 1/14/5 5/7/5 3/8/5
f 6/15/6 2/9/6 8/11/6
