# Blender v2.76 (sub 0) OBJ File: 'untitled.blend'
# www.blender.org
v 2.382765 -0.644885 0.387270
v 2.508173 -0.580397 0.387270
v 2.382765 -0.580397 0.484087
v 2.382765 0.644885 -0.387269
v -2.382765 0.644885 -0.387270
v -2.382765 0.644885 0.387270
v 2.382765 0.644885 0.387270
v -2.382765 0.580397 -0.484086
v -2.508173 0.580397 -0.387269
v -2.382765 -0.580397 -0.484087
v 2.382765 0.580397 -0.484086
v 2.382765 -0.580397 -0.484087
v -2.508173 -0.580396 0.387269
v -2.508173 -0.580396 -0.387270
v -2.382765 -0.644885 -0.387270
v -2.382765 -0.644885 0.387269
v 2.382765 0.580397 0.484086
v -2.382765 0.580397 0.484086
v -2.508173 0.580397 0.387269
v 2.382765 -0.644885 -0.387270
v -2.382765 -0.580396 0.484087
v 2.508173 -0.580397 -0.387270
v 2.508173 0.580397 -0.387269
v 2.508173 0.580397 0.387270
vt 1.263540 -0.993556
vt 1.164204 -1.050900
vt 1.263540 -1.108253
vt 4.345668 1.344684
vt 4.345668 1.993548
vt 1.263532 1.993556
vt 4.345668 1.229980
vt 4.445004 1.287340
vt 1.263532 1.229980
vt 1.263540 -0.229980
vt 4.460380 -0.344684
vt 4.345676 -0.344684
vt 4.345684 -0.993556
vt 4.345668 2.108260
vt 4.460380 -0.229972
vt 4.460372 1.229980
vt -2.811516 1.229996
vt -3.460364 1.230004
vt -3.460388 -0.229932
vt 4.345676 -0.229972
vt 1.263540 -0.344684
vt 0.385276 1.229972
vt -2.696812 1.229996
vt -2.696828 -0.229940
vt 4.460372 1.344692
vt 4.460372 1.993548
vt 4.345676 -1.108260
vt 0.499964 -0.229972
vt 1.148836 -0.229972
vt 1.148836 1.229972
vt 0.499972 1.229972
vt 0.385260 -0.229964
vt 1.263532 1.344684
vt 1.164204 1.287332
vt 1.164204 2.050908
vt 1.263532 2.108260
vt 4.445020 -1.050908
vt 4.445012 -0.287333
vt 1.148836 -0.344684
vt 1.148836 -0.993556
vt -2.811524 -0.229940
vt 1.164204 -0.287333
vt 4.445004 2.050900
vt 1.148836 1.993556
vt 1.148836 1.344684
vt 4.460388 -0.993556
vn 0.393500 -0.765100 0.509700
vn 0.000000 1.000000 0.000000
vn -0.393500 0.765100 -0.509700
vn 0.000000 0.000000 -1.000000
vn -0.457300 -0.889300 -0.000000
vn 0.000000 0.832300 0.554400
vn -0.611100 0.000000 -0.791600
vn -1.000000 0.000000 -0.000000
vn 0.000000 -0.832300 -0.554400
vn 0.000000 0.000000 1.000000
vn -0.457300 0.889300 -0.000000
vn -0.000000 -0.832300 0.554400
vn 1.000000 0.000000 0.000000
vn 0.611100 0.000000 0.791600
vn 0.000000 -1.000000 0.000000
vn 0.393500 0.765100 -0.509700
vn 0.393500 0.765100 0.509700
vn -0.393500 -0.765100 0.509700
vn -0.393500 -0.765100 -0.509700
vn 0.457300 -0.889300 0.000000
vn -0.611100 0.000000 0.791600
vn 0.393500 -0.765100 -0.509700
vn -0.393500 0.765100 0.509700
vn 0.000000 0.832300 -0.554400
vn 0.457300 0.889300 0.000000
vn 0.611100 0.000000 -0.791600
s off
f 1/1/1 2/2/1 3/3/1
f 5/4/2 6/5/2 7/6/2
f 8/7/3 9/8/3 5/4/3
f 8/7/4 11/9/4 12/10/4
f 14/11/5 15/12/5 16/13/5
f 7/6/6 6/5/6 18/14/6
f 14/15/7 9/16/7 8/7/7
f 19/17/8 9/18/8 14/19/8
f 10/20/9 12/10/9 20/21/9
f 17/22/10 18/23/10 21/24/10
f 5/4/11 9/25/11 19/26/11
f 3/3/12 21/27/12 16/13/12
f 2/28/13 22/29/13 23/30/13
f 24/31/14 17/22/14 3/32/14
f 1/1/15 16/13/15 15/12/15
f 11/9/16 4/33/16 23/34/16
f 24/35/17 7/6/17 17/36/17
f 21/27/18 13/37/18 16/13/18
f 15/12/19 14/38/19 10/20/19
f 20/21/20 22/39/20 2/40/20
f 18/23/21 19/17/21 13/41/21
f 20/21/22 12/10/22 22/42/22
f 18/14/23 6/5/23 19/43/23
f 5/4/24 4/33/24 11/9/24
f 24/44/25 23/45/25 4/33/25
f 11/9/26 23/30/26 22/29/26
f 4/33/2 5/4/2 7/6/2
f 10/20/4 8/7/4 12/10/4
f 13/46/5 14/11/5 16/13/5
f 17/36/6 7/6/6 18/14/6
f 10/20/7 14/15/7 8/7/7
f 13/41/8 19/17/8 14/19/8
f 15/12/9 10/20/9 20/21/9
f 3/32/10 17/22/10 21/24/10
f 6/5/11 5/4/11 19/26/11
f 1/1/12 3/3/12 16/13/12
f 24/31/13 2/28/13 23/30/13
f 2/28/14 24/31/14 3/32/14
f 20/21/15 1/1/15 15/12/15
f 1/1/20 20/21/20 2/40/20
f 21/24/21 18/23/21 13/41/21
f 8/7/24 5/4/24 11/9/24
f 7/6/25 24/44/25 4/33/25
f 12/10/26 11/9/26 22/29/26
