# Blender v2.76 (sub 0) OBJ File: 'untitled.blend'
# www.blender.org
v 2.844503 -0.644885 0.688896
v 2.994213 -0.580397 0.688897
v 2.844503 -0.580397 0.861120
v 2.844503 0.644885 -0.688895
v -2.844503 0.644885 -0.688896
v -2.844503 0.644885 0.688896
v 2.844503 0.644885 0.688897
v -2.844503 0.580397 -0.861118
v -2.994213 0.580397 -0.688895
v -2.844503 -0.580397 -0.861120
v 2.844503 0.580397 -0.861117
v 2.844503 -0.580397 -0.861119
v -2.994213 -0.580396 0.688895
v -2.994213 -0.580396 -0.688896
v -2.844503 -0.644885 -0.688896
v -2.844503 -0.644885 0.688895
v 2.844503 0.580397 0.861118
v -2.844503 0.580397 0.861118
v -2.994213 0.580397 0.688895
v 2.844503 -0.644885 -0.688896
v -2.844503 -0.580396 0.861119
v 2.994213 -0.580397 -0.688896
v 2.994213 0.580397 -0.688894
v 2.994213 0.580397 0.688896
vt 1.263540 -0.993556
vt 1.164204 -1.050900
vt 1.263540 -1.108253
vt 1.263532 1.344684
vt 4.345668 1.344684
vt 4.345668 1.993548
vt 4.345668 1.229980
vt 4.445004 1.287340
vt 1.263532 1.229980
vt 1.263540 -0.229980
vt 4.460380 -0.344684
vt 4.345676 -0.344684
vt 4.345684 -0.993556
vt 1.263532 1.993556
vt 4.345668 2.108260
vt 4.460380 -0.229972
vt 4.460372 1.229980
vt -2.811516 1.229996
vt -3.460364 1.230004
vt -3.460388 -0.229932
vt 4.345676 -0.229972
vt 1.263540 -0.344684
vt 0.385276 1.229972
vt -2.696812 1.229996
vt -2.696828 -0.229940
vt 4.460372 1.344692
vt 4.460372 1.993548
vt 4.345676 -1.108260
vt 0.499964 -0.229972
vt 1.148836 -0.229972
vt 1.148836 1.229972
vt 0.499972 1.229972
vt 1.164204 1.287332
vt 1.164204 2.050908
vt 1.263532 2.108260
vt 4.445020 -1.050908
vt 4.445012 -0.287333
vt 1.148836 -0.344684
vt 1.148836 -0.993556
vt -2.811524 -0.229940
vt 1.164204 -0.287333
vt 4.445004 2.050900
vt 1.148836 1.993556
vt 1.148836 1.344684
vt 4.460388 -0.993556
vt 0.385260 -0.229964
vn 0.374100 -0.868500 0.325200
vn 0.000000 1.000000 0.000000
vn -0.374100 0.868500 -0.325200
vn 0.000000 0.000000 -1.000000
vn -0.395600 -0.918400 -0.000000
vn 0.000000 0.936500 0.350700
vn -0.754700 0.000000 -0.656100
vn -1.000000 -0.000000 -0.000000
vn 0.000000 -0.936500 -0.350700
vn -0.000000 0.000000 1.000000
vn -0.395600 0.918400 0.000000
vn -0.000000 -0.936500 0.350700
vn 1.000000 0.000000 0.000000
vn 0.754700 0.000000 0.656100
vn -0.000000 -1.000000 -0.000000
vn 0.374100 0.868500 -0.325200
vn 0.374100 0.868500 0.325200
vn -0.374100 -0.868500 0.325200
vn -0.374100 -0.868500 -0.325200
vn 0.395600 -0.918400 -0.000000
vn -0.754700 0.000000 0.656100
vn 0.374100 -0.868500 -0.325200
vn -0.374100 0.868500 0.325200
vn 0.000000 0.936500 -0.350700
vn 0.395600 0.918400 0.000000
vn 0.754700 0.000000 -0.656100
s off
f 1/1/1 2/2/1 3/3/1
f 4/4/2 5/5/2 6/6/2
f 8/7/3 9/8/3 5/5/3
f 8/7/4 11/9/4 12/10/4
f 14/11/5 15/12/5 16/13/5
f 7/14/6 6/6/6 18/15/6
f 14/16/7 9/17/7 8/7/7
f 19/18/8 9/19/8 14/20/8
f 10/21/9 12/10/9 20/22/9
f 17/23/10 18/24/10 21/25/10
f 5/5/11 9/26/11 19/27/11
f 3/3/12 21/28/12 16/13/12
f 2/29/13 22/30/13 23/31/13
f 2/29/14 24/32/14 17/23/14
f 16/13/15 15/12/15 20/22/15
f 11/9/16 4/4/16 23/33/16
f 24/34/17 7/14/17 17/35/17
f 21/28/18 13/36/18 16/13/18
f 15/12/19 14/37/19 10/21/19
f 20/22/20 22/38/20 2/39/20
f 18/24/21 19/18/21 13/40/21
f 20/22/22 12/10/22 22/41/22
f 18/15/23 6/6/23 19/42/23
f 8/7/24 5/5/24 4/4/24
f 24/43/25 23/44/25 4/4/25
f 11/9/26 23/31/26 22/30/26
f 7/14/2 4/4/2 6/6/2
f 10/21/4 8/7/4 12/10/4
f 13/45/5 14/11/5 16/13/5
f 17/35/6 7/14/6 18/15/6
f 10/21/7 14/16/7 8/7/7
f 13/40/8 19/18/8 14/20/8
f 15/12/9 10/21/9 20/22/9
f 3/46/10 17/23/10 21/25/10
f 6/6/11 5/5/11 19/27/11
f 1/1/12 3/3/12 16/13/12
f 24/32/13 2/29/13 23/31/13
f 3/46/14 2/29/14 17/23/14
f 1/1/15 16/13/15 20/22/15
f 1/1/20 20/22/20 2/39/20
f 21/25/21 18/24/21 13/40/21
f 11/9/24 8/7/24 4/4/24
f 7/14/25 24/43/25 4/4/25
f 12/10/26 11/9/26 22/30/26
